HIERARCHY
ROOT Hips
{
  OFFSET 51.9624 101.175 42.0877
  CHANNELS 6 Xposition Yposition Zposition Zrotation Xrotation Yrotation
  JOINT spine
  {
    OFFSET 0 8.81705 0.507024
    CHANNELS 3 Zrotation Xrotation Yrotation
    JOINT spine1
    {
      OFFSET 0 10.7766 0
      CHANNELS 3 Zrotation Xrotation Yrotation
      JOINT spine2
      {
        OFFSET 0 10.3259 0
        CHANNELS 3 Zrotation Xrotation Yrotation
        JOINT Neck
        {
          OFFSET 0 26.511 1.26395
          CHANNELS 3 Zrotation Xrotation Yrotation
          JOINT Head
          {
            OFFSET 0 8.00966 0
            CHANNELS 3 Zrotation Xrotation Yrotation
            End Site
            {
              OFFSET 0 19.3879 -6.39386
            }
          }
        }
        JOINT RightShoulder
        {
          OFFSET -4.34795 11.1512 -0.605422
          CHANNELS 3 Zrotation Xrotation Yrotation
          JOINT RightArm
          {
            OFFSET 0 14.6258 0
            CHANNELS 3 Zrotation Xrotation Yrotation
            JOINT RightArmRoll
            {
              OFFSET 0 7.3834 0
              CHANNELS 3 Zrotation Xrotation Yrotation
              JOINT RightForeArm
              {
                OFFSET 0 21.5052 0
                CHANNELS 3 Zrotation Xrotation Yrotation
                JOINT RightForeArmRoll
                {
                  OFFSET 0 8.28532 0
                  CHANNELS 3 Zrotation Xrotation Yrotation
                  JOINT RightHand
                  {
                    OFFSET 0 16.6268 0
                    CHANNELS 3 Zrotation Xrotation Yrotation
                    End Site
                    {
                      OFFSET 0 0 0
                    }
                  }
                }
              }
            }
          }
        }
        JOINT LeftShoulder
        {
          OFFSET 4.34795 11.1512 -0.605422
          CHANNELS 3 Zrotation Xrotation Yrotation
          JOINT LeftArm
          {
            OFFSET 0 14.6258 0
            CHANNELS 3 Zrotation Xrotation Yrotation
            JOINT LeftArmRoll
            {
              OFFSET 0 7.3834 0
              CHANNELS 3 Zrotation Xrotation Yrotation
              JOINT LeftForeArm
              {
                OFFSET 0 21.5052 0
                CHANNELS 3 Zrotation Xrotation Yrotation
                JOINT LeftForeArmRoll
                {
                  OFFSET 0 8.28532 0
                  CHANNELS 3 Zrotation Xrotation Yrotation
                  JOINT LeftHand
                  {
                    OFFSET 0 16.6268 0
                    CHANNELS 3 Zrotation Xrotation Yrotation
                    End Site
                    {
                      OFFSET 0 0 0
                    }
                  }
                }
              }
            }
          }
        }
      }
    }
  }
  JOINT RightUpLeg
  {
    OFFSET -7.8151 -1.43309 -1.20217
    CHANNELS 3 Zrotation Xrotation Yrotation
    JOINT RightUpLegRoll
    {
      OFFSET 0 19.4959 0
      CHANNELS 3 Zrotation Xrotation Yrotation
      JOINT RightLeg
      {
        OFFSET 0 -24.1427 0
        CHANNELS 3 Zrotation Xrotation Yrotation
        JOINT RightLegRoll
        {
          OFFSET 0 24.2217 0
          CHANNELS 3 Zrotation Xrotation Yrotation
          JOINT RightFoot
          {
            OFFSET 0 20.1605 0
            CHANNELS 3 Zrotation Xrotation Yrotation
            JOINT RightToeBase
            {
              OFFSET 0 16.8532 0
              CHANNELS 3 Zrotation Xrotation Yrotation
              End Site
              {
                OFFSET 0.00714343 8.16187 -0.94078
              }
            }
          }
        }
      }
    }
  }
  JOINT LeftUpLeg
  {
    OFFSET 7.8151 -1.43309 -1.20217
    CHANNELS 3 Zrotation Xrotation Yrotation
    JOINT LeftUpLegRoll
    {
      OFFSET 0 19.496 0
      CHANNELS 3 Zrotation Xrotation Yrotation
      JOINT LeftLeg
      {
        OFFSET 0 24.1426 0
        CHANNELS 3 Zrotation Xrotation Yrotation
        JOINT LeftLegRoll
        {
          OFFSET 0 24.4456 0
          CHANNELS 3 Zrotation Xrotation Yrotation
          JOINT LeftFoot
          {
            OFFSET 0 19.9366 0
            CHANNELS 3 Zrotation Xrotation Yrotation
            JOINT LeftToeBase
            {
              OFFSET 0 16.8532 0
              CHANNELS 3 Zrotation Xrotation Yrotation
              End Site
              {
                OFFSET -0.0320138 8.16186 -0.940781
              }
            }
          }
        }
      }
    }
  }
}
MOTION
Frames: 14
Frame Time: 0.00208333
53.093 51.2672 9.9165 -1.82298 -5.20589 -0.145576 0.639399 1.34091 0.116709 1.27101 6.67569 0.120782 1.27237 8.32054 0.0996312 -1.14675 10.3594 2.62701 -3.70842 -12.4359 1.55607 64.0511 -0.680779 -1.06448 109.819 37.4399 -6.66578 2.06142e-005 -1.91612e-006 7.42049e-007 15.4881 40.9487 -7.24715 -1.01857e-005 2.05611e-006 -3.0042 8.02888 -4.95086 0.697462 -61.429 -3.40796 2.35632 -116.138 37.4604 19.0413 -7.15625e-015 6.36111e-015 -0 -15.0841 40.3085 6.88634 7.42921e-006 1.19247e-005 3.00378 -8.02886 -4.95085 -0.697438 84.0806 79.0601 100.79 180 7.01427e-015 178.489 -11.0741 76.2473 11.9715 4.46644e-006 -2.08493e-006 2.04727 -22.4386 70.321 21.8074 8.12748 25.2331 -3.4839 -73.068 81.84 -105.102 4.5067e-006 -1.99009e-005 -1.29427 159.939 -73.1225 155.999 -4.23201e-006 -3.51514e-006 -1.82606 17.8588 71.44 -22.5171 -8.12849 25.2331 3.48433 
53.0886 51.2685 9.90346 -1.82306 -5.20223 -0.145475 0.639671 1.34091 0.116703 1.27244 6.67576 0.120577 1.2738 8.32061 0.0993837 -1.16071 10.309 2.62666 -3.69211 -12.3655 1.5598 64.0434 -0.679819 -1.06311 109.824 37.439 -6.67152 2.06142e-005 -1.91612e-006 7.42049e-007 15.49 40.9571 -7.24968 -1.01857e-005 2.05611e-006 -3.0042 8.02888 -4.95086 0.697462 -61.4298 -3.4154 2.36073 -116.143 37.4626 19.0426 -6.36111e-015 1.59028e-014 1.59028e-015 -15.0828 40.3155 6.88783 7.42921e-006 1.19247e-005 3.00378 -8.02886 -4.95085 -0.697438 84.0563 79.0615 100.816 180 7.01427e-015 178.489 -11.0723 76.2466 11.9695 4.46644e-006 -2.08493e-006 2.04732 -22.4387 70.3204 21.8068 8.12748 25.2331 -3.4839 -73.0383 81.8392 -105.128 4.5067e-006 -1.99009e-005 -1.29425 159.938 -73.126 155.998 -4.23201e-006 -3.51514e-006 -1.8252 17.8475 71.436 -22.5134 -8.12849 25.2331 3.48433 
53.0908 51.2645 9.90816 -1.82321 -5.19872 -0.145469 0.639934 1.34091 0.116696 1.27388 6.67582 0.120353 1.27526 8.32067 0.0991153 -1.17526 10.2587 2.62653 -3.67516 -12.2951 1.56376 64.0352 -0.678654 -1.06158 109.83 37.4382 -6.67727 2.06142e-005 -1.91612e-006 7.42049e-007 15.492 40.9654 -7.25224 -1.01857e-005 2.05611e-006 -3.0042 8.02888 -4.95086 0.697462 -61.4308 -3.42306 2.36528 -116.149 37.4649 19.0434 7.95139e-016 0 6.36111e-015 -15.0811 40.3225 6.88926 7.42921e-006 1.19247e-005 3.00378 -8.02886 -4.95085 -0.697438 84.0327 79.063 100.841 180 7.01427e-015 178.489 -11.0703 76.2458 11.9673 4.46644e-006 -2.08493e-006 2.04741 -22.4391 70.32 21.8064 8.12748 25.2331 -3.4839 -73.0105 81.8381 -105.153 4.5067e-006 -1.99009e-005 -1.29421 159.936 -73.129 155.997 -4.23201e-006 -3.51514e-006 -1.82429 17.836 71.4323 -22.5102 -8.12849 25.2331 3.48433 
53.0885 51.2624 9.90394 -1.82341 -5.1953 -0.145528 0.64019 1.34091 0.11669 1.27534 6.67586 0.120115 1.27672 8.32071 0.0988323 -1.19024 10.2084 2.62654 -3.65776 -12.2248 1.5679 64.0268 -0.677344 -1.05993 109.836 37.4375 -6.68303 2.06142e-005 -1.91612e-006 7.42049e-007 15.494 40.9735 -7.25482 -1.01857e-005 2.05611e-006 -3.0042 8.02888 -4.95086 0.697462 -61.4319 -3.43087 2.36993 -116.154 37.4674 19.0439 -4.77083e-015 -3.18055e-015 3.18055e-015 -15.0792 40.3295 6.89063 7.42921e-006 1.19247e-005 3.00378 -8.02886 -4.95085 -0.697438 84.0094 79.0646 100.866 180 7.01427e-015 178.489 -11.0681 76.2449 11.9648 4.46644e-006 -2.08493e-006 2.04752 -22.4397 70.3196 21.806 8.12748 25.2331 -3.4839 -72.984 81.8369 -105.176 4.5067e-006 -1.99009e-005 -1.29417 159.935 -73.1317 155.997 -4.23201e-006 -3.51514e-006 -1.82336 17.8243 71.429 -22.5073 -8.12849 25.2331 3.48433 
53.0861 51.2591 9.92624 -1.82363 -5.19194 -0.145625 0.640442 1.34091 0.116685 1.2768 6.6759 0.119869 1.2782 8.32074 0.098541 -1.20545 10.1582 2.62663 -3.64011 -12.1544 1.57212 64.0181 -0.675952 -1.05822 109.841 37.4369 -6.6888 2.06142e-005 -1.91612e-006 7.42049e-007 15.4961 40.9815 -7.25741 -1.01857e-005 2.05611e-006 -3.0042 8.02888 -4.95086 0.697462 -61.433 -3.43876 2.37463 -116.159 37.4699 19.0441 -1.59028e-015 3.18055e-015 7.95139e-015 -15.0772 40.3364 6.89197 7.42921e-006 1.19247e-005 3.00378 -8.02886 -4.95085 -0.697438 83.9864 79.0662 100.89 180 7.01427e-015 178.489 -11.0658 76.2439 11.9622 4.46644e-006 -2.08493e-006 2.04764 -22.4405 70.3193 21.8058 8.12748 25.2331 -3.4839 -72.9583 81.8356 -105.198 4.5067e-006 -1.99009e-005 -1.29413 159.934 -73.1343 155.997 -4.23201e-006 -3.51514e-006 -1.82241 17.8125 71.4258 -22.5046 -8.12849 25.2331 3.48433 
53.0853 51.2523 9.92471 -1.82386 -5.18858 -0.145731 0.640692 1.34091 0.116679 1.27826 6.67593 0.119621 1.27968 8.32078 0.0982477 -1.22072 10.108 2.62675 -3.62241 -12.084 1.57638 64.0094 -0.674539 -1.05649 109.847 37.4362 -6.69457 2.06142e-005 -1.91612e-006 7.42049e-007 15.4982 40.9895 -7.26001 -1.01857e-005 2.05611e-006 -3.0042 8.02888 -4.95086 0.697462 -61.4342 -3.44668 2.37934 -116.165 37.4725 19.0442 -7.95139e-016 6.36111e-015 6.36111e-015 -15.0751 40.3434 6.8933 7.42921e-006 1.19247e-005 3.00378 -8.02886 -4.95085 -0.697438 83.9634 79.0678 100.915 180 7.01427e-015 178.489 -11.0634 76.2429 11.9595 4.46644e-006 -2.08493e-006 2.04776 -22.4412 70.319 21.8055 8.12748 25.2331 -3.4839 -72.9328 81.8342 -105.22 4.5067e-006 -1.99009e-005 -1.29408 159.933 -73.1368 155.996 -4.23201e-006 -3.51514e-006 -1.82145 17.8007 71.4228 -22.502 -8.12849 25.2331 3.48433 
53.0885 51.2558 9.90944 -1.82408 -5.18521 -0.145819 0.640945 1.34091 0.116673 1.27973 6.67597 0.119378 1.28115 8.32081 0.0979584 -1.23588 10.0577 2.62682 -3.60484 -12.0137 1.58058 64.0008 -0.673167 -1.05479 109.853 37.4356 -6.70034 2.06142e-005 -1.91612e-006 7.42049e-007 15.5002 40.9976 -7.2626 -1.01857e-005 2.05611e-006 -3.0042 8.02888 -4.95086 0.697462 -61.4353 -3.45455 2.38403 -116.17 37.475 19.0445 6.36111e-015 0 1.11319e-014 -15.0732 40.3504 6.89465 7.42921e-006 1.19247e-005 3.00378 -8.02886 -4.95085 -0.697438 83.9404 79.0694 100.94 180 7.01427e-015 178.489 -11.0611 76.2419 11.9569 4.46644e-006 -2.08493e-006 2.04787 -22.4419 70.3187 21.8052 8.12748 25.2331 -3.4839 -72.9069 81.8329 -105.242 4.5067e-006 -1.99009e-005 -1.29404 159.931 -73.1394 155.996 -4.23201e-006 -3.51514e-006 -1.82051 17.7889 71.4196 -22.4993 -8.12849 25.2331 3.48433 
53.0909 51.2582 9.91244 -1.82426 -5.18176 -0.145859 0.641203 1.34091 0.116667 1.28118 6.67602 0.119144 1.28261 8.32086 0.0976797 -1.25073 10.0074 2.6268 -3.58762 -11.9433 1.58467 63.9924 -0.671899 -1.05318 109.859 37.4349 -6.7061 2.06142e-005 -1.91612e-006 7.42049e-007 15.5023 41.0057 -7.26518 -1.01857e-005 2.05611e-006 -3.0042 8.02888 -4.95086 0.697462 -61.4363 -3.46231 2.38865 -116.175 37.4774 19.045 1.03368e-014 3.18055e-015 7.95139e-015 -15.0713 40.3574 6.89604 7.42921e-006 1.19247e-005 3.00378 -8.02886 -4.95085 -0.697438 83.9169 79.0709 100.965 180 7.01427e-015 178.489 -11.0589 76.241 11.9545 4.46644e-006 -2.08493e-006 2.04797 -22.4424 70.3183 21.8048 8.12748 25.2331 -3.4839 -72.88 81.8318 -105.265 4.5067e-006 -1.99009e-005 -1.294 159.93 -73.1422 155.995 -4.23201e-006 -3.51514e-006 -1.81958 17.7773 71.4162 -22.4963 -8.12849 25.2331 3.48433 
53.0751 51.2548 9.9289 -1.82439 -5.1782 -0.145825 0.641468 1.34091 0.11666 1.28262 6.67608 0.118925 1.28406 8.32092 0.0974176 -1.26511 9.9571 2.62661 -3.57092 -11.873 1.58856 63.9843 -0.670795 -1.05169 109.864 37.4341 -6.71184 2.06142e-005 -1.91612e-006 7.42049e-007 15.5042 41.0141 -7.26773 -1.01857e-005 2.05611e-006 -3.0042 8.02888 -4.95086 0.697462 -61.4373 -3.46991 2.39316 -116.18 37.4797 19.046 -3.33958e-014 1.27222e-014 -1.43125e-014 -15.0698 40.3644 6.89749 7.42921e-006 1.19247e-005 3.00378 -8.02886 -4.95085 -0.697438 83.8931 79.0724 100.99 180 7.01427e-015 178.489 -11.057 76.2402 11.9523 4.46644e-006 -2.08493e-006 2.04805 -22.4428 70.3178 21.8044 8.12748 25.2331 -3.4839 -72.8517 81.8307 -105.29 4.5067e-006 -1.99009e-005 -1.29397 159.928 -73.1454 155.995 -4.23201e-006 -3.51514e-006 -1.81869 17.7659 71.4124 -22.4929 -8.12849 25.2331 3.48433 
53.0778 51.2542 9.92517 -1.82444 -5.17449 -0.145687 0.641744 1.34091 0.116654 1.28403 6.67616 0.118729 1.28549 8.321 0.0971784 -1.27883 9.90672 2.62621 -3.55496 -11.8026 1.5922 63.9768 -0.669918 -1.05039 109.869 37.4332 -6.71757 2.06142e-005 -1.91612e-006 7.42049e-007 15.5061 41.0226 -7.27025 -1.01857e-005 2.05611e-006 -3.0042 8.02888 -4.95086 0.697462 -61.438 -3.47727 2.39752 -116.186 37.4819 19.0476 7.15625e-015 0 7.95139e-015 -15.0686 40.3713 6.89902 7.42921e-006 1.19247e-005 3.00378 -8.02886 -4.95085 -0.697438 83.8685 79.0737 101.016 180 7.01427e-015 178.489 -11.0554 76.2397 11.9505 4.46644e-006 -2.08493e-006 2.0481 -22.4428 70.3171 21.8037 8.12748 25.2331 -3.4839 -72.8214 81.83 -105.318 4.5067e-006 -1.99009e-005 -1.29395 159.926 -73.149 155.994 -4.23201e-006 -3.51514e-006 -1.81784 17.7548 71.4081 -22.489 -8.12849 25.2331 3.48433 
53.0855 51.2475 9.9208 -1.8244 -5.17059 -0.145419 0.642034 1.34091 0.116647 1.28542 6.67627 0.11856 1.28689 8.32111 0.0969684 -1.29172 9.85628 2.62552 -3.53992 -11.7322 1.5955 63.97 -0.66933 -1.04932 109.874 37.4321 -6.72327 2.06142e-005 -1.91612e-006 7.42049e-007 15.5079 41.0314 -7.27273 -1.01857e-005 2.05611e-006 -3.0042 8.02888 -4.95086 0.697462 -61.4386 -3.48434 2.40169 -116.191 37.4838 19.0499 7.15625e-015 3.18055e-015 6.36111e-015 -15.0678 40.3783 6.90065 7.42921e-006 1.19247e-005 3.00378 -8.02886 -4.95085 -0.697438 83.8431 79.075 101.042 180 7.01427e-015 178.49 -11.0542 76.2393 11.9492 4.46644e-006 -2.08493e-006 2.04811 -22.4425 70.3163 21.8028 8.12748 25.2331 -3.4839 -72.7884 81.8295 -105.348 4.5067e-006 -1.99009e-005 -1.29395 159.924 -73.1533 155.992 -4.23201e-006 -3.51514e-006 -1.81706 17.744 71.4032 -22.4845 -8.12849 25.2331 3.48433 
53.0794 51.2487 9.92073 -1.82424 -5.16646 -0.14499 0.642341 1.34091 0.11664 1.28679 6.67641 0.118425 1.28826 8.32125 0.0967939 -1.3036 9.80575 2.62448 -3.52599 -11.6619 1.5984 63.9639 -0.669092 -1.04852 109.878 37.4308 -6.72893 2.06142e-005 -1.91612e-006 7.42049e-007 15.5096 41.0406 -7.27515 -1.01857e-005 2.05611e-006 -3.0042 8.02888 -4.95086 0.697462 -61.439 -3.49104 2.40564 -116.196 37.4855 19.0532 -2.38542e-015 9.54166e-015 4.77083e-015 -15.0677 40.3852 6.90241 7.42921e-006 1.19247e-005 3.00378 -8.02886 -4.95085 -0.697438 83.8168 79.0761 101.069 180 7.01427e-015 178.49 -11.0534 76.2393 11.9484 4.46644e-006 -2.08493e-006 2.04807 -22.4416 70.3152 21.8017 8.12748 25.2331 -3.4839 -72.7522 81.8293 -105.382 4.5067e-006 -1.99009e-005 -1.29396 159.921 -73.1582 155.99 -4.23201e-006 -3.51514e-006 -1.81635 17.7337 71.3975 -22.4791 -8.12849 25.2331 3.48433 
53.0825 51.2425 9.92411 -1.82394 -5.16205 -0.144375 0.642667 1.34091 0.116632 1.28811 6.67658 0.118329 1.28959 8.32143 0.0966611 -1.31429 9.75511 2.62304 -3.51338 -11.5916 1.60083 63.9588 -0.669266 -1.04806 109.882 37.4293 -6.73456 2.06142e-005 -1.91612e-006 7.42049e-007 15.5111 41.0502 -7.27751 -1.01857e-005 2.05611e-006 -3.0042 8.02888 -4.95086 0.697462 -61.439 -3.49732 2.40931 -116.202 37.4868 19.0575 -4.77083e-015 6.36111e-015 1.59028e-015 -15.0681 40.3921 6.90432 7.42921e-006 1.19247e-005 3.00378 -8.02886 -4.95085 -0.697438 83.7892 79.077 101.097 180 7.01427e-015 178.49 -11.0533 76.2396 11.9483 4.46644e-006 -2.08493e-006 2.04797 -22.4403 70.3139 21.8003 8.12748 25.2331 -3.4839 -72.7123 81.8296 -105.421 4.5067e-006 -1.99009e-005 -1.294 159.917 -73.1641 155.988 -4.23201e-006 -3.51514e-006 -1.81572 17.7239 71.3909 -22.4727 -8.12849 25.2331 3.48433 
53.0803 51.2457 9.9185 -1.82348 -5.15733 -0.143544 0.643015 1.34091 0.116624 1.28939 6.6768 0.118279 1.29088 8.32165 0.0965762 -1.32361 9.70436 2.62113 -3.50228 -11.5212 1.60271 63.9548 -0.669915 -1.04797 109.885 37.4276 -6.74015 2.06142e-005 -1.91612e-006 7.42049e-007 15.5125 41.0603 -7.27979 -1.01857e-005 2.05611e-006 -3.0042 8.02888 -4.95086 0.697462 -61.4388 -3.50311 2.41267 -116.207 37.4879 19.0631 -2.38542e-015 0 3.18055e-015 -15.0694 40.399 6.9064 7.42921e-006 1.19247e-005 3.00378 -8.02886 -4.95085 -0.697438 83.7602 79.0777 101.126 180 7.01427e-015 178.49 -11.0538 76.2404 11.9489 4.46644e-006 -2.08493e-006 2.0478 -22.4383 70.3123 21.7985 8.12748 25.2331 -3.4839 -72.6681 81.8304 -105.464 4.5067e-006 -1.99009e-005 -1.29406 159.913 -73.1709 155.985 -4.23201e-006 -3.51514e-006 -1.81519 17.7147 71.3833 -22.4653 -8.12849 25.2331 3.48433 
